<svg width="64" height="64" viewBox="0 0 64 64" fill="none" xmlns="http://www.w3.org/2000/svg">
  <path d="M32 4C16.536 4 4 16.536 4 32C4 47.464 16.536 60 32 60C47.464 60 60 47.464 60 32C60 16.536 47.464 4 32 4ZM32 56C18.745 56 8 45.255 8 32C8 18.745 18.745 8 32 8C45.255 8 56 18.745 56 32C56 45.255 45.255 56 32 56Z" fill="#E4E4E7" fill-opacity="0.3"/>
  <path d="M32 16L18 48H24L27 41H37L40 48H46L32 16ZM29.5 35L32 29L34.5 35H29.5Z" fill="white" />
  <circle cx="32" cy="32" r="28" stroke="url(#paint0_linear)" stroke-width="2" stroke-opacity="0.5"/>
  <defs>
    <linearGradient id="paint0_linear" x1="4" y1="4" x2="60" y2="60" gradientUnits="userSpaceOnUse">
      <stop stop-color="white"/>
      <stop offset="1" stop-color="white" stop-opacity="0"/>
    </linearGradient>
  </defs>
</svg>
